<?xml version="1.0" standalone="no"?>
<!DOCTYPE svg PUBLIC "-//W3C//DTD SVG 20010904//EN"
 "http://www.w3.org/TR/2001/REC-SVG-20010904/DTD/svg10.dtd">
<svg version="1.0" xmlns="http://www.w3.org/2000/svg"
 width="64.000000pt" height="64.000000pt" viewBox="0 0 64.000000 64.000000"
 preserveAspectRatio="xMidYMid meet">

<g transform="translate(0.000000,64.000000) scale(0.100000,-0.100000)"
fill="#000000" stroke="none">
<path d="M92 618 c-9 -9 -12 -88 -12 -293 0 -260 1 -283 18 -298 24 -22 48
-21 86 2 17 11 101 52 186 91 85 40 163 79 173 88 15 13 17 30 15 121 l-3 106
-40 20 c-22 11 -92 44 -155 73 -63 29 -136 64 -163 77 -51 27 -86 32 -105 13z
m448 -273 c0 -17 -378 -205 -411 -205 -12 0 -19 7 -19 20 0 12 7 20 18 20 9 0
100 41 202 90 102 48 191 89 198 89 6 1 12 -6 12 -14z m-2 -101 c-4 -19 -394
-208 -414 -200 -21 8 -17 36 4 36 11 0 102 40 203 89 101 50 190 90 197 90 8
1 12 -6 10 -15z"/>
</g>
</svg>
